<?xml version="1.0" standalone="no"?>
<!DOCTYPE svg PUBLIC "-//W3C//DTD SVG 20010904//EN"
 "http://www.w3.org/TR/2001/REC-SVG-20010904/DTD/svg10.dtd">
<svg version="1.0" xmlns="http://www.w3.org/2000/svg"
 width="211.000000pt" height="64.000000pt" viewBox="0 0 211.000000 64.000000"
 preserveAspectRatio="xMidYMid meet">
<metadata>
Created by potrace 1.10, written by Peter Selinger 2001-2011
</metadata>
<g transform="translate(0.000000,64.000000) scale(0.100000,-0.100000)"
fill="#000000" stroke="none">
<path d="M1600 585 c0 -8 9 -20 20 -27 11 -7 20 -20 20 -30 0 -14 5 -15 32 -7
64 18 61 51 -7 68 -57 14 -65 14 -65 -4z"/>
<path d="M829 553 c-13 -21 -29 -44 -37 -52 -8 -8 -32 -39 -55 -70 -23 -31
-48 -62 -55 -70 -7 -7 -30 -39 -52 -70 -21 -32 -49 -64 -62 -73 -20 -13 -21
-17 -9 -32 12 -14 18 -10 58 46 24 35 76 97 116 139 110 115 145 164 139 194
-6 34 -16 31 -43 -12z"/>
<path d="M141 521 c-11 -21 -38 -54 -61 -73 -51 -45 -52 -66 -2 -70 34 -3 38
-6 46 -41 8 -32 5 -47 -22 -108 -28 -64 -33 -99 -12 -99 4 0 17 16 29 35 11
19 25 35 31 35 17 0 11 -40 -10 -75 -16 -26 -18 -38 -10 -59 15 -39 44 -33 65
13 35 79 13 235 -46 314 -20 28 -20 29 -2 49 10 11 17 22 15 24 -1 2 5 18 14
35 16 31 13 59 -5 59 -6 0 -20 -18 -30 -39z m28 -273 c1 -10 -6 -18 -14 -18
-16 0 -20 16 -6 24 5 3 7 16 5 29 -4 20 -4 21 5 2 5 -11 10 -28 10 -37z"/>
<path d="M1860 514 c-78 -27 -148 -89 -197 -171 -14 -24 -27 -43 -30 -43 -3 0
-3 18 1 40 4 24 2 49 -5 61 -9 18 -17 20 -47 14 -57 -11 -63 -16 -49 -45 9
-18 21 -25 42 -25 26 0 30 -3 28 -27 -1 -14 -14 -45 -29 -67 -25 -39 -26 -44
-14 -81 13 -41 40 -55 40 -22 0 10 4 22 8 27 5 6 14 29 21 53 12 42 100 184
122 198 20 12 29 -12 42 -116 17 -125 45 -197 83 -206 47 -12 164 2 192 23 35
26 37 39 13 60 -17 14 -21 29 -21 80 0 35 -4 63 -10 63 -6 0 -10 -26 -10 -59
0 -78 -25 -101 -110 -101 -76 0 -86 13 -110 140 -11 57 -22 112 -26 122 -4 14
3 22 30 33 45 19 102 19 109 1 7 -17 -11 -36 -35 -36 -27 0 -22 -25 7 -38 38
-18 48 -15 83 19 57 56 34 119 -44 119 -21 -1 -59 -8 -84 -16z m130 -25 c0 -5
-6 -9 -14 -9 -8 0 -16 -3 -19 -7 -2 -5 -2 -2 -1 5 2 6 -2 12 -9 12 -8 0 -7 3
2 9 16 10 41 4 41 -10z"/>
<path d="M318 502 c-48 -13 -58 -20 -58 -38 0 -11 8 -28 18 -37 16 -15 21 -15
38 -2 10 8 44 19 76 26 40 8 58 17 61 29 11 42 -35 49 -135 22z"/>
<path d="M1226 484 c-21 -21 -21 -21 22 -43 35 -18 61 -53 68 -93 3 -15 -32
-108 -41 -108 -2 0 -10 -3 -18 -6 -11 -4 -16 5 -19 35 -2 25 0 37 6 31 16 -16
46 8 46 37 0 24 -2 25 -39 20 -34 -4 -40 -2 -50 20 -6 13 -9 28 -6 33 3 5 1
11 -4 14 -15 10 -37 -45 -40 -99 -4 -78 18 -118 79 -144 31 -13 66 -21 88 -19
36 3 37 4 40 47 3 42 3 43 -22 37 -34 -8 -33 6 1 64 55 94 26 190 -58 190 -21
0 -45 -7 -53 -16z m-27 -164 c1 10 4 11 12 3 7 -7 8 -17 3 -25 -12 -19 -14
-38 -3 -38 5 0 9 -4 9 -10 0 -5 -6 -9 -12 -7 -14 2 -25 37 -26 77 -1 23 0 23
8 5 5 -12 9 -15 9 -5z"/>
<path d="M367 423 c-4 -3 -7 -14 -7 -23 0 -9 -18 -31 -40 -49 -57 -46 -49 -82
12 -50 27 14 31 7 23 -38 -5 -31 -14 -44 -46 -63 -42 -27 -43 -28 -30 -49 6
-9 19 -12 42 -7 19 3 53 9 75 12 37 6 43 10 52 42 12 39 1 57 -28 46 -48 -20
-49 -19 -28 43 13 37 30 66 49 81 42 33 39 55 -6 46 -23 -4 -35 -2 -35 5 0 12
-23 15 -33 4z m7 -214 c-4 -7 0 -9 14 -5 12 4 23 2 28 -5 5 -9 2 -10 -9 -6 -9
3 -19 2 -22 -4 -4 -5 -11 -7 -16 -4 -12 8 -11 35 2 35 5 0 7 -5 3 -11z"/>
<path d="M720 286 c0 -9 17 -15 53 -18 56 -5 96 -20 200 -80 44 -26 67 -45 67
-57 0 -15 10 -19 53 -24 48 -4 66 2 67 25 0 6 -31 26 -150 96 -99 58 -290 97
-290 58z"/>
</g>
</svg>
